# xmcd CD database file
#
# Track frame offsets:
#	150
#	18815
#	37527
#	59398
#	73089
#	82334
#	94073
#	127431
#
# Disc length: 1759 seconds
#
# Revision: 0
# Processed by: cddbd v1.5.1PL2 Copyright (c) Steve Scherf et al.
# Submitted via: CDex 1.51
#
DISCID=6906dd08
DTITLE=佐藤天平 - 魔界戦記ディスガイア 魔界アレンジコレクション〜ダークレーベル〜
DYEAR=2006
DGENRE=Soundtrack
TTITLE0=ビューティ男爵
TTITLE1=Hystelic Kingdom
TTITLE2=Angel Smile
TTITLE3=Anthem of Brave
TTITLE4=赤い月
TTITLE5=がんばれ女の子
TTITLE6=ギャラクシーウォーズ
TTITLE7=datetrack
EXTD=YEAR: 2006
EXTT0=
EXTT1=
EXTT2=
EXTT3=
EXTT4=
EXTT5=
EXTT6=
EXTT7=
PLAYORDER=
